<svg width="18" height="20" viewBox="0 0 18 20" fill="none" xmlns="http://www.w3.org/2000/svg">
<rect width="18" height="20" fill="#E5E5E5"/>
<g id="Desktop - 1">
<rect width="1920" height="4268" transform="translate(-1531 -51)" fill="#F1F1F1"/>
<g id="&#208;&#157;&#208;&#145;">
<g id="Group 1">
<path id="Vector" d="M15.5455 19H2.45455C1.65455 19 1 18.352 1 17.56C1 14.752 3.25455 12.52 6.09091 12.52H11.9091C14.7455 12.52 17 14.752 17 17.56C17 18.352 16.3455 19 15.5455 19Z" stroke="#323232" stroke-miterlimit="10" stroke-linecap="round" stroke-linejoin="round"/>
<path id="Vector_2" d="M8.99987 9.64002C11.4098 9.64002 13.3635 7.70589 13.3635 5.32001C13.3635 2.93413 11.4098 1 8.99987 1C6.5899 1 4.63623 2.93413 4.63623 5.32001C4.63623 7.70589 6.5899 9.64002 8.99987 9.64002Z" stroke="#323232" stroke-miterlimit="10" stroke-linecap="round" stroke-linejoin="round"/>
</g>
</g>
</g>
</svg>
